<mxfile host="Electron" modified="2023-06-17T13:05:24.431Z" agent="Mozilla/5.0 (Windows NT 10.0; Win64; x64) AppleWebKit/537.36 (KHTML, like Gecko) draw.io/21.4.0 Chrome/112.0.5615.204 Electron/24.5.1 Safari/537.36" etag="9Wh9fCfut57viXlE33kG" version="21.4.0" type="device">
  <diagram name="Page-1" id="13e1069c-82ec-6db2-03f1-153e76fe0fe0">
    <mxGraphModel dx="1988" dy="824" grid="1" gridSize="10" guides="1" tooltips="1" connect="1" arrows="1" fold="1" page="1" pageScale="1" pageWidth="1100" pageHeight="850" background="none" math="0" shadow="0">
      <root>
        <mxCell id="0" />
        <mxCell id="1" parent="0" />
        <mxCell id="7baba1c4bc27f4b0-2" value="InputSystem" style="shape=umlLifeline;perimeter=lifelinePerimeter;whiteSpace=wrap;html=1;container=1;collapsible=0;recursiveResize=0;outlineConnect=0;rounded=1;shadow=0;comic=0;labelBackgroundColor=none;strokeWidth=1;fontFamily=Verdana;fontSize=12;align=center;" parent="1" vertex="1">
          <mxGeometry x="240" y="80" width="100" height="630" as="geometry" />
        </mxCell>
        <mxCell id="7baba1c4bc27f4b0-10" value="" style="html=1;points=[];perimeter=orthogonalPerimeter;rounded=0;shadow=0;comic=0;labelBackgroundColor=none;strokeWidth=1;fontFamily=Verdana;fontSize=12;align=center;" parent="7baba1c4bc27f4b0-2" vertex="1">
          <mxGeometry x="45" y="76" width="10" height="534" as="geometry" />
        </mxCell>
        <mxCell id="7baba1c4bc27f4b0-3" value="Character" style="shape=umlLifeline;perimeter=lifelinePerimeter;whiteSpace=wrap;html=1;container=1;collapsible=0;recursiveResize=0;outlineConnect=0;rounded=1;shadow=0;comic=0;labelBackgroundColor=none;strokeWidth=1;fontFamily=Verdana;fontSize=12;align=center;" parent="1" vertex="1">
          <mxGeometry x="400" y="80" width="100" height="630" as="geometry" />
        </mxCell>
        <mxCell id="7baba1c4bc27f4b0-13" value="" style="html=1;points=[];perimeter=orthogonalPerimeter;rounded=0;shadow=0;comic=0;labelBackgroundColor=none;strokeWidth=1;fontFamily=Verdana;fontSize=12;align=center;" parent="7baba1c4bc27f4b0-3" vertex="1">
          <mxGeometry x="45" y="195" width="10" height="425" as="geometry" />
        </mxCell>
        <mxCell id="LDUVVOvlxtBsYf8Fhf7d-37" value="" style="html=1;points=[];perimeter=orthogonalPerimeter;outlineConnect=0;targetShapes=umlLifeline;portConstraint=eastwest;newEdgeStyle={&quot;edgeStyle&quot;:&quot;elbowEdgeStyle&quot;,&quot;elbow&quot;:&quot;vertical&quot;,&quot;curved&quot;:0,&quot;rounded&quot;:0};" vertex="1" parent="7baba1c4bc27f4b0-3">
          <mxGeometry x="50" y="251" width="10" height="40" as="geometry" />
        </mxCell>
        <mxCell id="LDUVVOvlxtBsYf8Fhf7d-38" value="5: ActJump()" style="html=1;align=left;spacingLeft=2;endArrow=block;rounded=0;edgeStyle=orthogonalEdgeStyle;rounded=0;" edge="1" target="LDUVVOvlxtBsYf8Fhf7d-37" parent="7baba1c4bc27f4b0-3">
          <mxGeometry x="0.191" relative="1" as="geometry">
            <mxPoint x="55" y="245" as="sourcePoint" />
            <Array as="points">
              <mxPoint x="55" y="236" />
              <mxPoint x="55" y="245" />
              <mxPoint x="80" y="245" />
              <mxPoint x="80" y="271" />
            </Array>
            <mxPoint as="offset" />
          </mxGeometry>
        </mxCell>
        <mxCell id="LDUVVOvlxtBsYf8Fhf7d-53" value="" style="html=1;points=[];perimeter=orthogonalPerimeter;outlineConnect=0;targetShapes=umlLifeline;portConstraint=eastwest;newEdgeStyle={&quot;edgeStyle&quot;:&quot;elbowEdgeStyle&quot;,&quot;elbow&quot;:&quot;vertical&quot;,&quot;curved&quot;:0,&quot;rounded&quot;:0};" vertex="1" parent="7baba1c4bc27f4b0-3">
          <mxGeometry x="50" y="431" width="10" height="31" as="geometry" />
        </mxCell>
        <mxCell id="LDUVVOvlxtBsYf8Fhf7d-54" value="5: ActLook()" style="html=1;align=left;spacingLeft=2;endArrow=block;rounded=0;edgeStyle=orthogonalEdgeStyle;rounded=0;" edge="1" parent="7baba1c4bc27f4b0-3" target="LDUVVOvlxtBsYf8Fhf7d-53">
          <mxGeometry x="0.279" relative="1" as="geometry">
            <mxPoint x="55" y="401" as="sourcePoint" />
            <Array as="points">
              <mxPoint x="55" y="421" />
              <mxPoint x="80" y="421" />
              <mxPoint x="80" y="442" />
            </Array>
            <mxPoint as="offset" />
          </mxGeometry>
        </mxCell>
        <mxCell id="7baba1c4bc27f4b0-8" value="UserInterface" style="shape=umlLifeline;perimeter=lifelinePerimeter;whiteSpace=wrap;html=1;container=1;collapsible=0;recursiveResize=0;outlineConnect=0;rounded=1;shadow=0;comic=0;labelBackgroundColor=none;strokeWidth=1;fontFamily=Verdana;fontSize=12;align=center;" parent="1" vertex="1">
          <mxGeometry x="100" y="80" width="100" height="630" as="geometry" />
        </mxCell>
        <mxCell id="7baba1c4bc27f4b0-9" value="" style="html=1;points=[];perimeter=orthogonalPerimeter;rounded=0;shadow=0;comic=0;labelBackgroundColor=none;strokeWidth=1;fontFamily=Verdana;fontSize=12;align=center;" parent="7baba1c4bc27f4b0-8" vertex="1">
          <mxGeometry x="45" y="76" width="10" height="524" as="geometry" />
        </mxCell>
        <mxCell id="LDUVVOvlxtBsYf8Fhf7d-18" value="" style="shape=umlLifeline;perimeter=lifelinePerimeter;whiteSpace=wrap;html=1;container=1;dropTarget=0;collapsible=0;recursiveResize=0;outlineConnect=0;portConstraint=eastwest;newEdgeStyle={&quot;edgeStyle&quot;:&quot;elbowEdgeStyle&quot;,&quot;elbow&quot;:&quot;vertical&quot;,&quot;curved&quot;:0,&quot;rounded&quot;:0};participant=umlActor;size=70;" vertex="1" parent="1">
          <mxGeometry x="-20" y="50" width="40" height="660" as="geometry" />
        </mxCell>
        <mxCell id="LDUVVOvlxtBsYf8Fhf7d-20" value=": User" style="text;strokeColor=none;align=center;fillColor=none;html=1;verticalAlign=middle;whiteSpace=wrap;rounded=0;rotation=0;" vertex="1" parent="1">
          <mxGeometry x="-30" y="20" width="60" height="30" as="geometry" />
        </mxCell>
        <mxCell id="LDUVVOvlxtBsYf8Fhf7d-25" value="1: StartGame()" style="html=1;verticalAlign=bottom;endArrow=block;edgeStyle=elbowEdgeStyle;elbow=vertical;curved=0;rounded=0;entryX=0;entryY=0;entryDx=0;entryDy=0;entryPerimeter=0;" edge="1" parent="1" target="7baba1c4bc27f4b0-9">
          <mxGeometry width="80" relative="1" as="geometry">
            <mxPoint x="-0.1896551724139499" y="156.1379310344828" as="sourcePoint" />
            <mxPoint x="140" y="156" as="targetPoint" />
          </mxGeometry>
        </mxCell>
        <mxCell id="LDUVVOvlxtBsYf8Fhf7d-28" value="3: Input()" style="html=1;verticalAlign=bottom;endArrow=block;edgeStyle=elbowEdgeStyle;elbow=vertical;curved=0;rounded=0;entryX=0.004;entryY=0.19;entryDx=0;entryDy=0;entryPerimeter=0;" edge="1" parent="1">
          <mxGeometry width="80" relative="1" as="geometry">
            <mxPoint x="-0.3333333333334849" y="279" as="sourcePoint" />
            <mxPoint x="285.03999999999996" y="278.65999999999985" as="targetPoint" />
          </mxGeometry>
        </mxCell>
        <mxCell id="LDUVVOvlxtBsYf8Fhf7d-31" value="4: CallJump()" style="html=1;verticalAlign=bottom;endArrow=block;edgeStyle=elbowEdgeStyle;elbow=vertical;curved=0;rounded=0;exitX=0.996;exitY=0.272;exitDx=0;exitDy=0;exitPerimeter=0;" edge="1" parent="1" target="7baba1c4bc27f4b0-13">
          <mxGeometry width="80" relative="1" as="geometry">
            <mxPoint x="294.96000000000004" y="320.808" as="sourcePoint" />
            <mxPoint x="390" y="301.06" as="targetPoint" />
            <Array as="points">
              <mxPoint x="320" y="310" />
            </Array>
          </mxGeometry>
        </mxCell>
        <mxCell id="LDUVVOvlxtBsYf8Fhf7d-39" value="6: EndGame()" style="html=1;verticalAlign=bottom;endArrow=block;edgeStyle=elbowEdgeStyle;elbow=vertical;curved=0;rounded=0;entryX=-0.005;entryY=0.961;entryDx=0;entryDy=0;entryPerimeter=0;" edge="1" parent="1">
          <mxGeometry width="80" relative="1" as="geometry">
            <mxPoint x="-0.1896551724139499" y="663.5172413793105" as="sourcePoint" />
            <mxPoint x="144.95000000000005" y="663.28" as="targetPoint" />
            <Array as="points" />
          </mxGeometry>
        </mxCell>
        <mxCell id="LDUVVOvlxtBsYf8Fhf7d-40" value="2: StartListeningInput()" style="html=1;verticalAlign=bottom;endArrow=block;edgeStyle=elbowEdgeStyle;elbow=vertical;curved=0;rounded=0;exitX=0.999;exitY=0.061;exitDx=0;exitDy=0;exitPerimeter=0;" edge="1" parent="1" source="7baba1c4bc27f4b0-9" target="7baba1c4bc27f4b0-10">
          <mxGeometry width="80" relative="1" as="geometry">
            <mxPoint x="290" y="326" as="sourcePoint" />
            <mxPoint x="370" y="326" as="targetPoint" />
          </mxGeometry>
        </mxCell>
        <mxCell id="LDUVVOvlxtBsYf8Fhf7d-41" value="alt" style="shape=umlFrame;whiteSpace=wrap;html=1;pointerEvents=0;" vertex="1" parent="1">
          <mxGeometry x="160" y="291" width="410" height="340" as="geometry" />
        </mxCell>
        <mxCell id="LDUVVOvlxtBsYf8Fhf7d-42" value="[Input == Space]" style="text;html=1;align=center;verticalAlign=middle;resizable=0;points=[];autosize=1;strokeColor=none;fillColor=none;" vertex="1" parent="1">
          <mxGeometry x="160" y="321" width="110" height="30" as="geometry" />
        </mxCell>
        <mxCell id="LDUVVOvlxtBsYf8Fhf7d-44" value="" style="endArrow=none;dashed=1;html=1;dashPattern=1 3;strokeWidth=2;rounded=0;entryX=1;entryY=0.299;entryDx=0;entryDy=0;entryPerimeter=0;exitX=0.002;exitY=0.303;exitDx=0;exitDy=0;exitPerimeter=0;" edge="1" parent="1" source="LDUVVOvlxtBsYf8Fhf7d-41" target="LDUVVOvlxtBsYf8Fhf7d-41">
          <mxGeometry width="50" height="50" relative="1" as="geometry">
            <mxPoint x="220" y="391" as="sourcePoint" />
            <mxPoint x="250" y="381" as="targetPoint" />
          </mxGeometry>
        </mxCell>
        <mxCell id="LDUVVOvlxtBsYf8Fhf7d-45" value="[Input == W, A, S, D]" style="text;html=1;align=center;verticalAlign=middle;resizable=0;points=[];autosize=1;strokeColor=none;fillColor=none;" vertex="1" parent="1">
          <mxGeometry x="155" y="391" width="130" height="30" as="geometry" />
        </mxCell>
        <mxCell id="LDUVVOvlxtBsYf8Fhf7d-46" value="" style="endArrow=none;dashed=1;html=1;dashPattern=1 3;strokeWidth=2;rounded=0;entryX=1;entryY=0.529;entryDx=0;entryDy=0;entryPerimeter=0;exitX=0.002;exitY=0.303;exitDx=0;exitDy=0;exitPerimeter=0;" edge="1" parent="1" target="LDUVVOvlxtBsYf8Fhf7d-41">
          <mxGeometry width="50" height="50" relative="1" as="geometry">
            <mxPoint x="160" y="473" as="sourcePoint" />
            <mxPoint x="689" y="472" as="targetPoint" />
          </mxGeometry>
        </mxCell>
        <mxCell id="LDUVVOvlxtBsYf8Fhf7d-47" value="[Input == MouseMove]" style="text;html=1;align=center;verticalAlign=middle;resizable=0;points=[];autosize=1;strokeColor=none;fillColor=none;" vertex="1" parent="1">
          <mxGeometry x="153" y="471" width="140" height="30" as="geometry" />
        </mxCell>
        <mxCell id="LDUVVOvlxtBsYf8Fhf7d-50" value="" style="html=1;points=[];perimeter=orthogonalPerimeter;outlineConnect=0;targetShapes=umlLifeline;portConstraint=eastwest;newEdgeStyle={&quot;edgeStyle&quot;:&quot;elbowEdgeStyle&quot;,&quot;elbow&quot;:&quot;vertical&quot;,&quot;curved&quot;:0,&quot;rounded&quot;:0};" vertex="1" parent="1">
          <mxGeometry x="450" y="426" width="10" height="35" as="geometry" />
        </mxCell>
        <mxCell id="LDUVVOvlxtBsYf8Fhf7d-51" value="5: ActMove()" style="html=1;align=left;spacingLeft=2;endArrow=block;rounded=0;edgeStyle=orthogonalEdgeStyle;rounded=0;" edge="1" parent="1" target="LDUVVOvlxtBsYf8Fhf7d-50">
          <mxGeometry x="0.279" relative="1" as="geometry">
            <mxPoint x="455" y="401" as="sourcePoint" />
            <Array as="points">
              <mxPoint x="455" y="421" />
              <mxPoint x="480" y="421" />
              <mxPoint x="480" y="442" />
            </Array>
            <mxPoint as="offset" />
          </mxGeometry>
        </mxCell>
        <mxCell id="LDUVVOvlxtBsYf8Fhf7d-52" value="4: CallMove()" style="html=1;verticalAlign=bottom;endArrow=block;edgeStyle=elbowEdgeStyle;elbow=vertical;curved=0;rounded=0;exitX=1.003;exitY=0.42;exitDx=0;exitDy=0;exitPerimeter=0;" edge="1" parent="1">
          <mxGeometry width="80" relative="1" as="geometry">
            <mxPoint x="295" y="411" as="sourcePoint" />
            <mxPoint x="445" y="411" as="targetPoint" />
          </mxGeometry>
        </mxCell>
        <mxCell id="LDUVVOvlxtBsYf8Fhf7d-59" value="" style="html=1;points=[];perimeter=orthogonalPerimeter;outlineConnect=0;targetShapes=umlLifeline;portConstraint=eastwest;newEdgeStyle={&quot;edgeStyle&quot;:&quot;elbowEdgeStyle&quot;,&quot;elbow&quot;:&quot;vertical&quot;,&quot;curved&quot;:0,&quot;rounded&quot;:0};" vertex="1" parent="1">
          <mxGeometry x="450" y="591" width="10" height="30" as="geometry" />
        </mxCell>
        <mxCell id="LDUVVOvlxtBsYf8Fhf7d-60" value="5: ActShoot()" style="html=1;align=left;spacingLeft=2;endArrow=block;rounded=0;edgeStyle=orthogonalEdgeStyle;rounded=0;" edge="1" parent="1" target="LDUVVOvlxtBsYf8Fhf7d-59">
          <mxGeometry x="0.3023" relative="1" as="geometry">
            <mxPoint x="455" y="560" as="sourcePoint" />
            <Array as="points">
              <mxPoint x="455" y="581" />
              <mxPoint x="480" y="581" />
              <mxPoint x="480" y="601" />
            </Array>
            <mxPoint as="offset" />
          </mxGeometry>
        </mxCell>
        <mxCell id="LDUVVOvlxtBsYf8Fhf7d-61" value="4: CallShoot()" style="html=1;verticalAlign=bottom;endArrow=block;edgeStyle=elbowEdgeStyle;elbow=vertical;curved=0;rounded=0;exitX=1.003;exitY=0.42;exitDx=0;exitDy=0;exitPerimeter=0;" edge="1" parent="1">
          <mxGeometry width="80" relative="1" as="geometry">
            <mxPoint x="295" y="571" as="sourcePoint" />
            <mxPoint x="445" y="571" as="targetPoint" />
          </mxGeometry>
        </mxCell>
        <mxCell id="LDUVVOvlxtBsYf8Fhf7d-62" value="" style="endArrow=none;dashed=1;html=1;dashPattern=1 3;strokeWidth=2;rounded=0;entryX=1;entryY=0.762;entryDx=0;entryDy=0;entryPerimeter=0;exitX=0.002;exitY=0.303;exitDx=0;exitDy=0;exitPerimeter=0;" edge="1" parent="1" target="LDUVVOvlxtBsYf8Fhf7d-41">
          <mxGeometry width="50" height="50" relative="1" as="geometry">
            <mxPoint x="160" y="551" as="sourcePoint" />
            <mxPoint x="689" y="550" as="targetPoint" />
          </mxGeometry>
        </mxCell>
        <mxCell id="LDUVVOvlxtBsYf8Fhf7d-63" value="[Input == LeftClick]" style="text;html=1;align=center;verticalAlign=middle;resizable=0;points=[];autosize=1;strokeColor=none;fillColor=none;" vertex="1" parent="1">
          <mxGeometry x="160" y="551" width="120" height="30" as="geometry" />
        </mxCell>
        <mxCell id="LDUVVOvlxtBsYf8Fhf7d-55" value="4: CallLook()" style="html=1;verticalAlign=bottom;endArrow=block;edgeStyle=elbowEdgeStyle;elbow=vertical;curved=0;rounded=0;exitX=1.003;exitY=0.42;exitDx=0;exitDy=0;exitPerimeter=0;" edge="1" parent="1">
          <mxGeometry width="80" relative="1" as="geometry">
            <mxPoint x="295" y="491" as="sourcePoint" />
            <mxPoint x="445" y="491" as="targetPoint" />
          </mxGeometry>
        </mxCell>
        <mxCell id="LDUVVOvlxtBsYf8Fhf7d-68" value="7: EndListeningInput()" style="html=1;verticalAlign=bottom;endArrow=block;edgeStyle=elbowEdgeStyle;elbow=vertical;curved=0;rounded=0;exitX=0.997;exitY=0.987;exitDx=0;exitDy=0;exitPerimeter=0;entryX=-0.003;entryY=0.965;entryDx=0;entryDy=0;entryPerimeter=0;" edge="1" parent="1">
          <mxGeometry width="80" relative="1" as="geometry">
            <mxPoint x="154.97000000000003" y="678.7599999999998" as="sourcePoint" />
            <mxPoint x="284.97" y="677.8499999999999" as="targetPoint" />
          </mxGeometry>
        </mxCell>
        <mxCell id="LDUVVOvlxtBsYf8Fhf7d-69" value="8: EndCharactor()" style="html=1;verticalAlign=bottom;endArrow=block;edgeStyle=elbowEdgeStyle;elbow=vertical;curved=0;rounded=0;exitX=1;exitY=0.989;exitDx=0;exitDy=0;exitPerimeter=0;entryX=0;entryY=0.986;entryDx=0;entryDy=0;entryPerimeter=0;" edge="1" parent="1">
          <mxGeometry width="80" relative="1" as="geometry">
            <mxPoint x="295" y="689.6099999999999" as="sourcePoint" />
            <mxPoint x="445" y="689.4560000000001" as="targetPoint" />
          </mxGeometry>
        </mxCell>
        <mxCell id="LDUVVOvlxtBsYf8Fhf7d-70" value="loop" style="shape=umlFrame;whiteSpace=wrap;html=1;pointerEvents=0;" vertex="1" parent="1">
          <mxGeometry x="-30" y="220" width="610" height="425" as="geometry" />
        </mxCell>
        <mxCell id="LDUVVOvlxtBsYf8Fhf7d-71" value="[Input != ClickedEndGame()]" style="text;html=1;align=center;verticalAlign=middle;resizable=0;points=[];autosize=1;strokeColor=none;fillColor=none;labelBackgroundColor=default;" vertex="1" parent="1">
          <mxGeometry x="30" y="220" width="180" height="30" as="geometry" />
        </mxCell>
      </root>
    </mxGraphModel>
  </diagram>
</mxfile>
